<svg xmlns="http://www.w3.org/2000/svg" xmlns:xlink="http://www.w3.org/1999/xlink" viewBox="0 0 560 420"><defs><style>.cls-1,.cls-18,.cls-9{fill:none;}.cls-11,.cls-14,.cls-15,.cls-2{isolation:isolate;}.cls-3{fill:#e5e5e5;mix-blend-mode:multiply;}.cls-16,.cls-19,.cls-4{fill:#fff;}.cls-5{fill:#ffde83;}.cls-6{clip-path:url(#clip-path);}.cls-11,.cls-7{opacity:0.7;}.cls-8{fill:url(#linear-gradient);}.cls-13,.cls-14,.cls-15,.cls-16,.cls-18,.cls-19,.cls-9{stroke:#3a3836;stroke-width:2px;}.cls-13,.cls-14,.cls-15,.cls-16,.cls-9{stroke-linecap:round;stroke-linejoin:round;}.cls-10{fill:#fd8753;}.cls-11{fill:url(#linear-gradient-2);}.cls-12{fill:#3a3836;}.cls-13{fill:#d1dafa;}.cls-14,.cls-15{fill-opacity:0.8;}.cls-14{fill:url(#linear-gradient-3);}.cls-15{fill:url(#linear-gradient-4);}.cls-17{fill:#a2ecc2;}.cls-19{stroke-miterlimit:10;}</style><clipPath id="clip-path"><rect class="cls-1" x="35.03" y="-10.55" width="500" height="430"/></clipPath><linearGradient id="linear-gradient" x1="160.51" y1="-5420.28" x2="329.6" y2="-5420.28" gradientTransform="translate(598.06 -5165.23) rotate(180)" gradientUnits="userSpaceOnUse"><stop offset="0" stop-color="#ff7100"/><stop offset="0.3" stop-color="#ff7400"/><stop offset="0.5" stop-color="#ff7d00"/><stop offset="0.68" stop-color="#ff8b00"/><stop offset="0.84" stop-color="#ffa100"/><stop offset="0.98" stop-color="#fbbd23"/><stop offset="1" stop-color="#f9c025"/></linearGradient><linearGradient id="linear-gradient-2" x1="385.05" y1="-5291.63" x2="447.56" y2="-5291.63" gradientTransform="translate(598.06 -5165.23) rotate(180)" gradientUnits="userSpaceOnUse"><stop offset="0" stop-color="#fd7002"/><stop offset="0.16" stop-color="#fa7f0f"/><stop offset="0.72" stop-color="#eead30"/><stop offset="1" stop-color="#e9be3b"/></linearGradient><linearGradient id="linear-gradient-3" x1="81.81" y1="154.77" x2="140.7" y2="154.77" gradientUnits="userSpaceOnUse"><stop offset="0" stop-color="#fd6d37"/><stop offset="0.52" stop-color="#f98f3a"/><stop offset="1" stop-color="#f6aa3c"/></linearGradient><linearGradient id="linear-gradient-4" x1="82.3" y1="148.72" x2="140.24" y2="148.72" xlink:href="#linear-gradient-3"/></defs><g class="cls-2"><g id="Layer_1" data-name="Layer 1"><rect class="cls-3" x="350.18" y="371.16" width="140.67" height="26.79" rx="13.39"/><path class="cls-4" d="M219,77.76a52.31,52.31,0,0,0-89.3,37v12.91H234.34V114.76A52.34,52.34,0,0,0,219,77.76Zm-6,47.36H150.5v-9.29a31.26,31.26,0,1,1,62.51,0Z"/><path class="cls-4" d="M129.73,114.76v12.91H234.34V114.76a52.31,52.31,0,1,0-104.61,0Z"/><circle class="cls-5" cx="453.34" cy="116.54" r="74.36"/><g class="cls-6"><path class="cls-4" d="M346.15,179.18c-1.38,2.8-15.46,40.41-16.28,43.63s-4.39,24.85-3.06,28.78-2.3,8.78-3.47,11.94a19.28,19.28,0,0,0,3.47,17.66c5.3,6.84,14.34,2.86,18.57.87s5.05-4.7,5.05-4.7,5.46,86.09,5.77,89.56,4.29,14.75,11.48,18.83,16.79,1.63,24-2.24,7.91-18.89,7.91-18.89L398.71,311l11.18,7.76s18.83,45.47,22.25,53.79,11.38,12.4,17.55,14.13,15.67-3.21,20.31-7.19,4.7-18.78,4.7-18.78l-21.18-72s1.94-3.26,10.31-11.48S477.76,241,477.76,241s-3.69-19-10.82-30.57c-2.14-4.59-7.66-7.4-10.56-12.3a153.7,153.7,0,0,0,0-16l-.16-.41a6.85,6.85,0,0,0-7.4-4.59Z"/><g class="cls-7"><path class="cls-4" d="M267.66,247.66v33.43h13V262.51H286V274.4h13V262.51h23.11c0,.15,7.61-7,14.44-7.09,6.33,0,11.95,7.09,11.95,7.09H368a35.48,35.48,0,0,0,34.4,26.95c8.16,0,15.36-3.17,21.63-7.35,2.76-1.79-1.48-4,.31-6.23,1.17-1.43,4.18-10,5-11.53,2.14-3.93,7.4-8.68,7.91-12.25.92-6.53.2-3.57.2-3.57a17.93,17.93,0,0,0-.81-3.68,35.46,35.46,0,0,0-69.1,2.81H267.66Zm113.44,8a21.64,21.64,0,1,1,21.64,21.64A21.65,21.65,0,0,1,381.1,255.67Z"/><path class="cls-8" d="M268.66,248.66v33.43h13V263.51H286V275.4h13V263.51h23.11c0,.15,7.61-7,14.44-7.09,6.33-.05,11.95,7.09,11.95,7.09H368a35.48,35.48,0,0,0,34.4,26.95c8.16,0,15.36-3.17,21.63-7.35,2.76-1.79-1.48-4,.31-6.23,1.17-5.85,4.18-10,5-11.53,2.14-3.93,7.4-8.68,7.91-12.25.92-6.53.2-3.57.2-3.57a17.93,17.93,0,0,0-.81-3.68,35.46,35.46,0,0,0-69.1,2.81H268.66Zm112.44,8a21.64,21.64,0,1,1,21.64,21.64A21.65,21.65,0,0,1,381.1,256.67Z"/></g><path class="cls-9" d="M349.57,247.92c-.72-22.92.1-25.62.61-50.22"/><path class="cls-9" d="M399.63,313.8v55a21.76,21.76,0,0,1-43.33-.36c-1.68-20.16-4.54-65.68-5.87-104.72"/><path class="cls-9" d="M453.77,288.59l20.93,72.16a21.47,21.47,0,0,1-20.83,26.17h-1.58a21.33,21.33,0,0,1-20.15-14.28l-22.25-53.79-13.73-7.5"/><path class="cls-9" d="M440.05,247.05s-16.23-26.18,0-60.58"/><path class="cls-9" d="M423.77,226c-2.71-8.88-3.88-20.43,1.63-31.81"/><path class="cls-9" d="M349.14,243.78C338.88,225.31,342,188,342,188"/><path class="cls-9" d="M397.46,219.19V216a1.24,1.24,0,0,1,1.22-1.23h11.64a1.24,1.24,0,0,1,1.22,1.23v3.68"/><path class="cls-9" d="M456.38,198.16V184.54a6.72,6.72,0,0,0-6.69-6.69H436.58"/><path class="cls-9" d="M402.74,277.31a21.64,21.64,0,1,1,21.64-21.64A21.64,21.64,0,0,1,402.74,277.31Z"/><path class="cls-9" d="M424.94,283a35.33,35.33,0,0,1-55.83-19.55H349.62"/><path class="cls-9" d="M323.34,263.53H300.27v11.84H287.36V263.53H282v18.53H269V248.68h99.61a35.31,35.31,0,0,1,68.84-2.81,18,18,0,0,1,.82,3.68"/><path class="cls-9" d="M342.22,189.38s-15.92,30.37-15.41,57.72"/><path class="cls-9" d="M336.25,255.52a13.92,13.92,0,0,0-13.93,13.93v1.48a13.93,13.93,0,0,0,27.86,0v-1.48A14,14,0,0,0,336.25,255.52Z"/><path class="cls-9" d="M434.74,181.73s81.19,46.69,18.78,107.06a17,17,0,0,1-24.14-.36c-.26-.25-.51-.56-.77-.86a17,17,0,0,1-.51-21.28l19-30.37"/><path class="cls-4" d="M414,98.65a7.86,7.86,0,1,1,6-9.34A7.87,7.87,0,0,1,414,98.65Z"/><path class="cls-10" d="M414,98.65a7.86,7.86,0,1,1,6-9.34A7.87,7.87,0,0,1,414,98.65Z"/><path class="cls-9" d="M414,98.65a7.86,7.86,0,1,1,6-9.34A7.87,7.87,0,0,1,414,98.65Z"/><path class="cls-9" d="M409.48,98.34l-1.89,5.57"/><path class="cls-4" d="M386.67,210.46a55.22,55.22,0,1,1,55.21-55.22A55.22,55.22,0,0,1,386.67,210.46Z"/><path class="cls-9" d="M386.67,210.46a55.22,55.22,0,1,1,55.21-55.22A55.22,55.22,0,0,1,386.67,210.46Z"/><path class="cls-9" d="M344.19,120.7c16-.82,28.85,14.69,29.87,34.59S364,192,347.93,192.8"/><path class="cls-9" d="M392.23,154a8.28,8.28,0,1,1,8.67,7.86A8.24,8.24,0,0,1,392.23,154Z"/><path class="cls-9" d="M129.73,114.76v12.91H234.34V114.76a52.31,52.31,0,1,0-104.61,0Zm0,0v12.91H234.34V114.76a52.31,52.31,0,1,0-104.61,0Zm0,0v12.91H234.34V114.76a52.31,52.31,0,1,0-104.61,0ZM213,125.12H150.5v-9.29a31.26,31.26,0,1,1,62.51,0v9.24Zm-83.28-10.36v12.91H234.34V114.76a52.31,52.31,0,1,0-104.61,0Z"/><path class="cls-4" d="M150.5,125.12H213v2.55H150.5Z"/><path class="cls-11" d="M150.5,125.12H213v2.55H150.5Z"/><path class="cls-9" d="M150.5,125.12H213v2.55H150.5Z"/><path class="cls-4" d="M114.83,132.16V225a7.05,7.05,0,0,0,7,7H242.35a7.05,7.05,0,0,0,7-7V132.16a7.05,7.05,0,0,0-7-7H121.87A7.05,7.05,0,0,0,114.83,132.16Z"/><g class="cls-7"><path class="cls-4" d="M114.83,132.16V225a7.05,7.05,0,0,0,7,7H242.35a7.05,7.05,0,0,0,7-7V132.16a7.05,7.05,0,0,0-7-7H121.87A7.05,7.05,0,0,0,114.83,132.16Z"/></g><path class="cls-4" d="M114.83,132.16V225a7.05,7.05,0,0,0,7,7H242.35a7.05,7.05,0,0,0,7-7V132.16a7.05,7.05,0,0,0-7-7H121.87A7.05,7.05,0,0,0,114.83,132.16Z"/><path class="cls-9" d="M114.83,132.16V225a7.05,7.05,0,0,0,7,7H242.35a7.05,7.05,0,0,0,7-7V132.16a7.05,7.05,0,0,0-7-7H121.87A7.05,7.05,0,0,0,114.83,132.16Z"/><path class="cls-4" d="M168.31,170.08A13.8,13.8,0,1,1,190,181.41l.36,19.49H174.07l.72-19.19A13.64,13.64,0,0,1,168.31,170.08Z"/><path class="cls-4" d="M168.31,170.08A13.8,13.8,0,1,1,190,181.41l.36,19.49H174.07l.72-19.19A13.64,13.64,0,0,1,168.31,170.08Z"/><path class="cls-9" d="M168.31,170.08A13.8,13.8,0,1,1,190,181.41l.36,19.49H174.07l.72-19.19A13.64,13.64,0,0,1,168.31,170.08Z"/><path class="cls-12" d="M290.57,148.44H228.93a14.39,14.39,0,0,0,0,28.78h61.64a14.39,14.39,0,1,0,0-28.78Z"/><path class="cls-4" d="M288.64,145.38H227a14.39,14.39,0,0,0,0,28.78h61.65a14.39,14.39,0,0,0,0-28.78Z"/><path class="cls-13" d="M288.64,145.38H227a14.39,14.39,0,0,0,0,28.78h61.65a14.39,14.39,0,0,0,0-28.78Z"/><path class="cls-9" d="M276.75,154.77v9.95"/><path class="cls-9" d="M281.08,157.17l-8.36,5.36"/><path class="cls-9" d="M280.88,162.53l-8.37-5.41"/><path class="cls-9" d="M257.51,154.77v9.95"/><path class="cls-9" d="M261.79,157.17l-8.36,5.36"/><path class="cls-9" d="M261.59,162.53l-8.32-5.41"/><path class="cls-9" d="M238.22,154.77v9.95"/><path class="cls-9" d="M242.5,157.17l-8.36,5.36"/><path class="cls-9" d="M242.3,162.53,234,157.12"/><path class="cls-12" d="M141.8,139.61H86.58a1.83,1.83,0,0,0-1.83,1.84v32.76a1.83,1.83,0,0,0,1.83,1.84H141.8a1.84,1.84,0,0,0,1.84-1.84V141.45A1.84,1.84,0,0,0,141.8,139.61Z"/><path class="cls-4" d="M138.86,136.55H83.64a1.83,1.83,0,0,0-1.83,1.84v32.76A1.83,1.83,0,0,0,83.64,173h55.22a1.84,1.84,0,0,0,1.84-1.84V138.39A1.84,1.84,0,0,0,138.86,136.55Z"/><path class="cls-14" d="M138.86,136.55H83.64a1.83,1.83,0,0,0-1.83,1.84v32.76A1.83,1.83,0,0,0,83.64,173h55.22a1.84,1.84,0,0,0,1.84-1.84V138.39A1.84,1.84,0,0,0,138.86,136.55Z"/><path class="cls-9" d="M138.86,136.55H83.64a1.83,1.83,0,0,0-1.83,1.84v32.76A1.83,1.83,0,0,0,83.64,173h55.22a1.84,1.84,0,0,0,1.84-1.84V138.39A1.84,1.84,0,0,0,138.86,136.55Z"/><path class="cls-4" d="M140.24,138l-28.83,21.13a1.93,1.93,0,0,1-2.2,0L81.3,138"/><path class="cls-15" d="M140.24,138l-28.83,21.13a1.93,1.93,0,0,1-2.2,0L82.3,138"/><path class="cls-12" d="M171.6,219.89H143.94a7.81,7.81,0,0,0-7.81,7.8v26.54a7.81,7.81,0,0,0,7.81,7.81H171.6a7.81,7.81,0,0,0,7.81-7.81V227.69A7.74,7.74,0,0,0,171.6,219.89Z"/><path class="cls-4" d="M168.66,216.82H141a7.81,7.81,0,0,0-7.8,7.81v26.54A7.8,7.8,0,0,0,141,259h27.66a7.81,7.81,0,0,0,7.81-7.8V224.63A7.74,7.74,0,0,0,168.66,216.82Z"/><path class="cls-16" d="M168.66,216.82H141a7.81,7.81,0,0,0-7.8,7.81v26.54A7.8,7.8,0,0,0,141,259h27.66a7.81,7.81,0,0,0,7.81-7.8V224.63A7.74,7.74,0,0,0,168.66,216.82Z"/><path class="cls-12" d="M158.46,231a13.58,13.58,0,0,0-13.32,11.53,17.66,17.66,0,0,0-.16,2.81,2.16,2.16,0,0,0,.26,1,12.45,12.45,0,0,0,.92,1.43.5.5,0,0,0,.66.25c.31-.1.36-.35.31-.66a18.23,18.23,0,0,1,.05-4.49,11.52,11.52,0,0,1,8.57-9.44,11.08,11.08,0,0,1,11.18,3.47.88.88,0,0,0,.46.3.5.5,0,0,0,.56-.3v-.1a8.88,8.88,0,0,0-.21-1.69,1.54,1.54,0,0,0-.61-.87,12.93,12.93,0,0,0-7.55-3.16A8.1,8.1,0,0,0,158.46,231Z"/><path class="cls-12" d="M149.07,245.66c.2,1.43.35,3,.61,4.54.15,1.17.92,1.58,1.84,1.89.35.1.66-.26.56-.67-.21-1-.46-2.09-.61-3.11a16.41,16.41,0,0,1-.11-5,7.26,7.26,0,0,1,14.34.2c.05.21.05.46.11.67a.45.45,0,0,0,.4.46.52.52,0,0,0,.56-.31,12.54,12.54,0,0,0,.62-1.94,2.61,2.61,0,0,0-.1-1.07,9,9,0,0,0-7.81-6.07,9.28,9.28,0,0,0-10.11,7.7A21.37,21.37,0,0,0,149.07,245.66Z"/><path class="cls-12" d="M158.46,226.72a17.63,17.63,0,0,0-14.65,8,3.9,3.9,0,0,0-.71,2.35v1.23c0,.41.15.61.4.66s.51-.15.62-.46a15.74,15.74,0,0,1,13.06-9.59,14.92,14.92,0,0,1,8.27,1.63.56.56,0,0,0,.76-.05c.21-.2.16-.46,0-.72a4.25,4.25,0,0,0-2.55-2.24A18.43,18.43,0,0,0,158.46,226.72Z"/><path class="cls-12" d="M153.25,245.55a21.49,21.49,0,0,0,1.23,6.48c.25.77.51.92,1.32.92h.46a.55.55,0,0,0,.56-.51.63.63,0,0,0,0-.3,18.37,18.37,0,0,1-1.38-7.4,3.12,3.12,0,0,1,6.23-.21v.21a12.45,12.45,0,0,0,.72,4.54c.25.66.61.71,1.12.2l.46-.46a1,1,0,0,0,.2-1,10.87,10.87,0,0,1-.41-3.36,5.16,5.16,0,0,0-10.25-.92A6.53,6.53,0,0,0,153.25,245.55Z"/><path class="cls-12" d="M158.46,224.58l2,.15a.49.49,0,0,0,.61-.4.59.59,0,0,0-.31-.62,7.37,7.37,0,0,0-4.85-1.07,27.9,27.9,0,0,0-6.07,1.63,9.24,9.24,0,0,0-4.08,3.68.5.5,0,0,0,.76.66,19.3,19.3,0,0,1,12-4Z"/><path class="cls-12" d="M157.44,245.61a15.39,15.39,0,0,0,1.37,6c.26.56.46.66,1,.41.21-.11.46-.21.67-.31a.52.52,0,0,0,.3-.66s-.05,0-.05-.11a13.82,13.82,0,0,1-1.22-5.86v-.41a1,1,0,0,0-2.09,0Z"/></g><line class="cls-9" x1="356.43" y1="371.16" x2="94.1" y2="371.16"/><path class="cls-17" d="M114.58,370s-9.7-39.41,8.64-41.14c13.33-1.26,8.25,41.14,8.25,41.14Z"/><path class="cls-17" d="M128,370s-6.25-55.31,11.61-70.65,9.83,70.81,9.83,70.81Z"/><path class="cls-17" d="M149,370s-6.25-41.45,11.61-53.08,9.83,52.69,9.83,52.69Z"/><line class="cls-18" x1="135.98" y1="369.05" x2="139.13" y2="328.85"/><polyline class="cls-18" points="137.55 354 158.95 340.65 160.95 330.58"/><line class="cls-18" x1="140.13" y1="322.31" x2="140.52" y2="315.5"/><line class="cls-9" x1="83.13" y1="371.15" x2="64.78" y2="371.15"/><path class="cls-19" d="M317,72.67,324,75l-7,2.29-2.29,7-2.28-7-7-2.29,7-2.28,2.28-7Z"/><path class="cls-12" d="M55.06,307.37l4.36,1.42-4.36,1.42-1.43,4.36-1.42-4.36-4.36-1.42,4.36-1.42L53.63,303Z"/><path class="cls-12" d="M501,203l4.36,1.42L501,205.88l-1.43,4.36-1.42-4.36-4.36-1.43,4.36-1.42,1.42-4.36Z"/><path class="cls-19" d="M285.1,312.29l7,2.28-7,2.29-2.28,7-2.28-7-7-2.29,7-2.28,2.28-7Z"/><line class="cls-19" x1="476.09" y1="369.05" x2="512.71" y2="369.05"/><path class="cls-3" d="M350.82,210.24s38.22,9.16,62.77-6.79c0,0-34.39,16.79-63.41-5.75Z"/><rect class="cls-3" x="129.73" y="114.76" width="20.77" height="10.36"/><rect class="cls-3" x="213.73" y="114.76" width="20.77" height="10.36"/></g></g></svg>